<?xml version="1.0" encoding="utf-8"?>
<!-- Generator: Adobe Illustrator 25.1.0, SVG Export Plug-In . SVG Version: 6.00 Build 0)  -->
<svg version="1.1" id="Layer_1" xmlns="http://www.w3.org/2000/svg" xmlns:xlink="http://www.w3.org/1999/xlink" x="0px" y="0px"
	 viewBox="0 0 57.14 93.71" style="enable-background:new 0 0 57.14 93.71;" xml:space="preserve">
<style type="text/css">
	.st0{fill:#D2D3D5;}
	.st1{fill:#51525A;}
	.st2{opacity:0.3;fill:#FFFFFF;}
	.st3{fill:#474044;}
	.st4{opacity:0.3;fill:#88B0DD;}
	.st5{fill:#60606A;}
	.st6{opacity:0.2;fill:#010101;}
	.st7{fill:#FBAD22;}
</style>
<g>
	<g>
		<path class="st0" d="M35.04,37.81c0,0,0.2,1.47,0.93,1.53c0.73,0.06,3.67,1.21,4.63,1.96c0.97,0.75,1.17,3.14,1.58,5.45
			c0.41,2.31-1.35,5.56-2.05,6.7c-0.7,1.14-4.5,4.83-5.76,5.38c-1.26,0.56-3.04-0.56-4.91-1.58c-1.87-1.02-5.14-0.79-5.14-0.79
			s-3.27-0.23-5.14,0.79c-1.87,1.02-3.66,2.14-4.91,1.58c-1.26-0.56-5.06-4.24-5.76-5.38c-0.7-1.14-2.46-4.39-2.05-6.7
			c0.41-2.31,0.61-4.7,1.58-5.45c0.96-0.75,3.9-1.91,4.63-1.96c0.73-0.06,0.93-1.53,0.93-1.53c-3.22,0.37-6.44,0.99-9.98,3.27
			c0,0.73,0,8.66,0,9.39c0.64,0.58,1.96,2.15,2.49,2.72c1.06,1.15,2.79,3.82,4.02,5.4c0.64,0.82,2.33,2.53,4.13,3.05
			c1.44,0.42,3.6-0.09,4.76-0.77c1.39-0.81,3.28-1.67,5.3-1.7c2.03,0.03,3.92,0.89,5.3,1.7c1.16,0.68,3.32,1.19,4.76,0.77
			c1.8-0.52,3.5-2.23,4.13-3.05c1.23-1.58,2.95-4.24,4.02-5.4c0.53-0.57,1.84-2.14,2.49-2.72c0-0.73,0-8.66,0-9.39
			C41.48,38.8,38.26,38.18,35.04,37.81z"/>
		<path class="st1" d="M35.83,38.32c-1.66-1.18-3.76-2.03-5.73-2.5c-1.96-0.47-4.48-0.39-5.77-0.43c-1.29,0.04-3.81-0.04-5.77,0.43
			c-1.97,0.47-4.08,1.33-5.73,2.5c-0.72,0.51-0.86,1.59-0.86,1.59s3.9-1.01,5.85-0.7c1.95,0.31,6.51,1.75,6.51,1.75
			s4.56-1.44,6.51-1.75c1.95-0.31,5.85,0.7,5.85,0.7S36.54,38.83,35.83,38.32z"/>
		<path class="st2" d="M19.67,39.55c1.45-1.3,3.14-2.27,4.75-2.84c1.88-0.67,4.3-0.56,5.55-0.61c-1.87-0.4-4.22-0.34-5.43-0.37
			c-1.24,0.04-3.67-0.03-5.56,0.4c-1.9,0.43-3.92,1.23-5.52,2.31c-0.69,0.47-0.83,1.48-0.83,1.48s3.75-0.94,5.63-0.65
			C18.64,39.32,19.13,39.42,19.67,39.55z"/>
		<path class="st3" d="M34.16,38.58c1.87,2.92,3.33,5.08,3.39,8.89c0.04,2.69-0.47,5.73-1.35,8.54c1.75-0.23,5.62-4.83,6.03-7.44
			c0.41-2.62-0.41-5.79-1.7-7.19C38.51,39.16,34.16,38.58,34.16,38.58z"/>
		<path class="st4" d="M26.52,44.05c-0.3-1.25-0.94-2.87-0.24-3.32c3.36-2.12,12.75-1.53,14.35,0.51c1.29,1.64,1.79,4.78,0.51,8.75
			c-0.83,2.6-5,7.15-6.88,6.93C31.01,56.53,27.67,48.83,26.52,44.05z"/>
		<path class="st3" d="M28.18,49.93c-0.42-1.2-2.25-5.54-2.65-6.24c-0.16-0.28-1.21-0.88-1.21-0.88s-1.04,0.6-1.21,0.88
			c-0.41,0.7-2.24,5.04-2.65,6.24c-0.74,2.14-1.93,3.9-3.03,5.17c1.16-0.05,2.64-0.88,3.22-1.76c0.58-0.88,0.88-2.4,1.46-4.33
			c0.59-1.93,1.29-2.78,2.2-2.78c0.91,0,1.62,0.86,2.2,2.78c0.58,1.93,0.88,3.45,1.46,4.33c0.59,0.88,2.07,1.7,3.22,1.76
			C30.11,53.83,28.92,52.07,28.18,49.93z"/>
		<path class="st1" d="M33.64,57.34c-0.05-0.03-0.1-0.06-0.16-0.11c-0.39,0.13-0.87,0.25-1.4,0.33c-1.57,0.22-3.38-1.35-4.44-2.44
			c-1.05-1.09-2.28-1.61-3.31-1.61c-1.03,0-2.26,0.52-3.31,1.61c-1.05,1.09-2.86,2.66-4.44,2.44c-0.54-0.07-1.01-0.2-1.4-0.33
			c-0.06,0.05-0.12,0.08-0.16,0.11c-0.86,0.51-2.42,0.08-3.71-0.58c0.35,0.86,1.1,1.98,2.2,2.81c0.63,0.47,2.16,0.67,3.31,0.14
			c1.52-0.71,3.02-1.93,3.76-2.36c1.02-0.58,2.53-0.84,3.74-0.84c1.22,0,2.73,0.26,3.74,0.84c0.74,0.43,2.25,1.65,3.76,2.36
			c1.16,0.54,2.69,0.33,3.31-0.14c1.1-0.82,1.85-1.95,2.2-2.81C36.06,57.42,34.5,57.85,33.64,57.34z"/>
		<path class="st5" d="M33.48,57.23c-0.39,0.13-0.87,0.25-1.4,0.33c-1.57,0.22-3.38-1.35-4.44-2.44c-0.39-0.41-0.81-0.73-1.23-0.98
			H26.4c-0.71-0.42-1.43-0.62-2.07-0.62c-1.03,0-2.26,0.52-3.31,1.61c-0.63,0.65-1.54,1.48-2.5,1.99c-0.64,0.34-1.31,0.53-1.93,0.44
			c-0.54-0.07-1.01-0.2-1.4-0.33c0.47-0.32,1.34-1.06,2.27-2.13c1.16-0.05,2.64-0.88,3.22-1.75c0.07-0.1,0.14-0.22,0.2-0.34
			c0.01-0.02,0.02-0.04,0.03-0.06c0.07-0.14,0.14-0.29,0.2-0.45c0.09-0.22,0.16-0.43,0.21-0.61c0-0.01,0-0.02,0.01-0.03
			c0.25-0.79,0.49-1.75,0.81-2.83c0.59-1.93,1.29-2.78,2.2-2.78c0.2,0,0.4,0.04,0.58,0.13c0.64,0.3,1.17,1.15,1.63,2.65
			c0.58,1.93,0.88,3.45,1.46,4.33c0.59,0.88,2.07,1.7,3.22,1.75C32.14,56.18,33,56.91,33.48,57.23z"/>
		<path class="st3" d="M14.48,38.58c-1.87,2.92-3.33,5.08-3.39,8.89c-0.04,2.69,0.47,5.73,1.34,8.54c-1.75-0.23-5.62-4.83-6.02-7.44
			c-0.41-2.62,0.41-5.79,1.7-7.19C10.13,39.16,14.48,38.58,14.48,38.58z"/>
		<path class="st6" d="M11.12,54.62c-1.9-2.1-3.28-6.05-3.41-9.86c-0.07-1.85,1.08-2.65,3.08-3.41c0.72-0.27,2.03-0.56,3.71-0.66
			c1.6,0,4.25,0.16,5.43,0.51c0.41,0.12,0.83,0.27,1.26,0.42c0.41,0.15,0.83,0.29,1.26,0.41v-0.33c-0.58-0.15-1.16-0.36-1.72-0.55
			c-0.44-0.15-0.85-0.3-1.26-0.42c-1.19-0.35-3.83-0.5-5.43-0.51c-1.68,0.1-2.98,0.38-3.71,0.66c-2,0.76-3.15,1.56-3.08,3.41
			c0.14,4.06,1.69,8.28,3.78,10.25C11.05,54.57,11.09,54.59,11.12,54.62z"/>
		<path class="st6" d="M32.08,55.27c-0.92-1.08-1.9-4.12-2.62-6.36c-0.94-2.93-1.66-5.18-2.8-6.3v-0.43
			c0.58-0.15,1.16-0.36,1.72-0.55c0.44-0.15,0.85-0.3,1.26-0.42c1.19-0.35,3.83-0.5,5.43-0.51c1.68,0.1,2.98,0.38,3.71,0.66
			c0.85,0.32,1.55,0.66,2.06,1.07c-0.52-0.65-1.38-1.1-2.53-1.54c-0.72-0.27-2.03-0.56-3.71-0.66c-1.6,0-4.25,0.16-5.43,0.51
			c-0.41,0.12-0.83,0.27-1.26,0.42c-0.56,0.2-1.14,0.4-1.72,0.55v0.43c1.14,1.12,1.86,3.37,2.8,6.3c0.75,2.32,1.76,5.5,2.71,6.47
			C31.83,55.04,31.96,55.15,32.08,55.27z"/>
		<path class="st6" d="M24.33,43.23c0,0-0.01,0-0.01,0c0,0-0.01,0-0.01,0c-1.98,0-3.44,10.32-6.03,12.99
			c-1.35,1.38-2.66,1.98-3.95,1.98c-1.53,0-3.02-0.84-4.51-2.23c0.13,0.14,0.26,0.27,0.39,0.4c1.51,1.43,3.03,2.29,4.59,2.29
			c1.29,0,2.61-0.6,3.95-1.98c2.59-2.66,4.05-12.99,6.03-12.99c0,0,0.01,0,0.01,0c0,0,0.01,0,0.01,0c0.12,0,0.23,0.04,0.35,0.11
			C24.88,43.44,24.61,43.23,24.33,43.23z"/>
		<path class="st6" d="M42.17,41.08c0.68,0.77,1.16,1.82,1.11,3.28c-0.16,4.52-1.87,9.19-4.37,11.54c-1.51,1.43-3.04,2.29-4.59,2.29
			c-1.18,0-2.37-0.51-3.6-1.64c0.04,0.04,0.08,0.09,0.11,0.13c1.35,1.38,2.66,1.98,3.95,1.98c1.55,0,3.08-0.87,4.59-2.29
			c2.5-2.36,4.21-7.02,4.37-11.54C43.8,43.04,43.09,41.87,42.17,41.08z"/>
		<path class="st7" d="M38.98,39.13c-1.29-0.49-3.36-0.81-5.53-0.81c0,0,0,0,0,0c-1.63,0-3.33,0.18-4.8,0.62
			c-1.52,0.45-3,1.17-4.33,1.17c-1.33,0-2.81-0.72-4.33-1.17c-1.47-0.44-3.17-0.62-4.8-0.62c0,0,0,0,0,0
			c-2.17,0-4.24,0.32-5.53,0.81c-1.5,0.57-4.41,1.72-4.29,5.23c0.16,4.52,1.87,9.19,4.37,11.54c1.51,1.43,3.03,2.29,4.59,2.29
			c1.29,0,2.61-0.6,3.95-1.98c2.59-2.66,4.05-12.99,6.03-12.99c0,0,0.01,0,0.01,0c0,0,0.01,0,0.01,0c1.98,0,3.44,10.32,6.03,12.99
			c1.35,1.38,2.66,1.98,3.95,1.98c1.55,0,3.08-0.87,4.59-2.29c2.5-2.36,4.21-7.02,4.37-11.54C43.4,40.85,40.49,39.7,38.98,39.13z
			 M22.45,42.13c-1.14,1.12-1.86,3.37-2.8,6.3c-0.74,2.32-1.76,5.5-2.71,6.47c-0.93,0.95-1.78,1.42-2.61,1.42
			c-0.94,0-2.05-0.6-3.3-1.78c-2.09-1.97-3.64-6.18-3.78-10.25c-0.06-1.85,1.08-2.65,3.08-3.41c0.72-0.27,2.03-0.56,3.71-0.66
			c1.6,0,4.25,0.16,5.43,0.51c0.41,0.12,0.83,0.27,1.26,0.42c0.56,0.2,1.14,0.4,1.72,0.55V42.13z M37.62,54.54
			c-1.25,1.18-2.37,1.78-3.3,1.78c-0.83,0-1.68-0.46-2.61-1.42c-0.95-0.97-1.97-4.15-2.71-6.47c-0.94-2.93-1.66-5.18-2.8-6.3v-0.43
			c0.58-0.15,1.16-0.36,1.72-0.55c0.44-0.15,0.85-0.3,1.26-0.42c1.19-0.35,3.83-0.5,5.43-0.51c1.68,0.1,2.98,0.38,3.71,0.66
			c2,0.76,3.15,1.56,3.08,3.41C41.26,48.36,39.71,52.57,37.62,54.54z"/>
		<path class="st4" d="M22.12,44.05c0.3-1.25,0.94-2.87,0.24-3.32C19,38.6,9.61,39.2,8.01,41.24c-1.29,1.64-1.78,4.78-0.51,8.75
			c0.84,2.6,5,7.15,6.88,6.93C17.63,56.53,20.97,48.83,22.12,44.05z"/>
		<path class="st6" d="M14.33,57.03c0.83,0,1.68-0.46,2.61-1.42c0.95-0.97,1.97-4.15,2.71-6.47c0.94-2.94,2.67-6.77,2.61-6.79
			c-1.03,1.18-1.72,3.32-2.61,6.08c-0.74,2.32-1.76,5.5-2.71,6.47c-0.93,0.95-1.78,1.42-2.61,1.42c-0.94,0-2.05-0.6-3.3-1.78
			c-2.04-1.93-3.57-6-3.77-9.99C7.24,44.69,7.24,44.84,7.24,45c0.14,4.06,1.69,8.28,3.78,10.25C12.28,56.43,13.39,57.03,14.33,57.03
			z"/>
		<path class="st2" d="M9.66,39.84c1.29-0.49,3.35-0.81,5.53-0.81c0,0,0,0,0,0c1.63,0,3.33,0.18,4.81,0.62
			c1.52,0.45,3,1.17,4.33,1.17c1.33,0,2.81-0.72,4.33-1.17c1.47-0.43,3.17-0.62,4.8-0.62c0,0,0,0,0,0c2.17,0,4.24,0.32,5.53,0.81
			c1.42,0.54,4.09,1.59,4.28,4.67c0-0.05,0.01-0.1,0.01-0.15c0.12-3.51-2.79-4.66-4.29-5.23c-1.29-0.49-3.36-0.81-5.53-0.81
			c0,0,0,0,0,0c-1.63,0-3.33,0.18-4.8,0.62c-1.52,0.45-3,1.17-4.33,1.17c-1.33,0-2.81-0.72-4.33-1.17c-1.47-0.44-3.17-0.62-4.8-0.62
			c0,0,0,0,0,0c-2.17,0-4.24,0.32-5.53,0.81c-1.5,0.57-4.41,1.72-4.29,5.23c0,0.07,0.01,0.13,0.01,0.2
			C5.54,41.44,8.23,40.38,9.66,39.84z"/>
		<path class="st6" d="M31.71,55.61c0.93,0.95,1.78,1.42,2.61,1.42c0.94,0,2.05-0.6,3.3-1.78c2.09-1.97,3.64-6.18,3.78-10.25
			c0.01-0.17,0-0.32-0.02-0.47c-0.19,3.99-1.72,8.08-3.77,10.01c-1.25,1.18-2.37,1.78-3.3,1.78c-0.83,0-1.68-0.46-2.61-1.42
			c-0.95-0.97-1.97-4.15-2.71-6.47c-0.89-2.76-1.58-4.9-2.61-6.08c-0.06,0.02,1.67,3.85,2.61,6.79
			C29.74,51.46,30.76,54.64,31.71,55.61z"/>
		<path class="st2" d="M26.4,54.14c-0.71-0.42-1.43-0.62-2.07-0.62c-1.03,0-2.26,0.52-3.31,1.61c-0.63,0.65-1.54,1.48-2.5,1.99
			c0.65-1.02,1.71-2.73,2.35-4.11c0.01-0.02,0.02-0.04,0.03-0.06c0.07-0.16,0.14-0.31,0.2-0.45c0.09-0.22,0.16-0.43,0.21-0.61
			c0-0.01,0-0.02,0.01-0.03c0.25-0.79,0.49-1.75,0.81-2.83c0.59-1.93,1.29-2.78,2.2-2.78c0.2,0,0.4,0.04,0.58,0.13L26.4,54.14z"/>
	</g>
	<g>
		<path class="st5" d="M51.89,69.33l-4.86-1.32c0.17-0.61,0.25-1.18,0.25-1.71V36.29c0-3.05-1.34-7.78-2.92-10.33
			c-6.04-9.74-7.64-12.54-9.56-14.87l1.09-7.05c2.65,3.2,8.39,12.24,12.75,19.27c2.06,3.32,3.68,9.03,3.68,12.99v30.02
			C52.32,67.28,52.17,68.3,51.89,69.33z"/>
		<rect x="46.65" y="58.91" class="st3" width="6.3" height="7.4"/>
		<path class="st7" d="M40.72,20.15c-4.2-6.63-4.43-7.26-5.93-9.08l1.09-7.05c1.66,2.01,4.72,6.52,9.09,13.43L40.72,20.15z"/>
		
			<rect x="39.97" y="17.54" transform="matrix(0.8447 -0.5352 0.5352 0.8447 -3.4104 25.8548)" class="st3" width="5.77" height="2.52"/>
		<g>
			<g>
				<path class="st3" d="M52.6,67.45l-5.67-0.43c0.02-0.24,0.03-0.48,0.03-0.71h5.69C52.64,66.7,52.63,67.08,52.6,67.45z"/>
				<path class="st5" d="M52.27,68.51l-5.21-0.73c0.04-0.25,0.06-0.51,0.08-0.75l5.25,0.4C52.36,67.8,52.32,68.16,52.27,68.51z"/>
			</g>
			<g>
				<path class="st3" d="M52.3,69.61l-5.59-1.1c0.05-0.25,0.09-0.5,0.13-0.75l5.64,0.79C52.43,68.9,52.37,69.26,52.3,69.61z"/>
				<path class="st5" d="M51.86,70.6l-5.1-1.29c0.06-0.25,0.12-0.51,0.17-0.77l5.16,1.01C52.02,69.91,51.94,70.26,51.86,70.6z"/>
			</g>
			<g>
				<path class="st3" d="M51.78,71.68l-5.44-1.68c0.08-0.25,0.14-0.5,0.21-0.75l5.52,1.39C51.98,71,51.88,71.34,51.78,71.68z"/>
				<path class="st5" d="M51.23,72.63l-4.94-1.82c0.09-0.24,0.17-0.49,0.25-0.74l5.03,1.55C51.47,71.96,51.35,72.3,51.23,72.63z"/>
			</g>
			<g>
				<path class="st3" d="M51.03,73.71l-5.22-2.27c0.1-0.23,0.19-0.46,0.28-0.7l5.34,1.97C51.31,73.04,51.17,73.38,51.03,73.71z"/>
				<path class="st5" d="M50.36,74.62l-4.68-2.41c0.11-0.22,0.22-0.45,0.32-0.68l4.82,2.1C50.68,73.96,50.53,74.29,50.36,74.62z"/>
			</g>
			<g>
				<path class="st3" d="M49.99,75.71l-4.85-2.98c0.12-0.2,0.24-0.4,0.35-0.62l5.06,2.61C50.38,75.05,50.19,75.38,49.99,75.71z"/>
				<path class="st5" d="M49.16,76.55l-4.21-3.15c0.13-0.18,0.26-0.37,0.38-0.57l4.48,2.76C49.61,75.92,49.4,76.24,49.16,76.55z"/>
			</g>
			<g>
				<path class="st3" d="M48.54,77.63l-4.15-3.89c0.13-0.14,0.26-0.3,0.39-0.47l4.56,3.41C49.09,77,48.83,77.32,48.54,77.63z"/>
				<path class="st5" d="M47.44,78.36l-3.3-4.09c0.13-0.1,0.27-0.23,0.4-0.38l3.84,3.6C48.1,77.79,47.79,78.08,47.44,78.36z"/>
			</g>
			<g>
				<path class="st3" d="M46.65,79.18l-3.24-4.68l0.02-0.02l0.24-0.15c0.17-0.1,0.21-0.14,0.33-0.23l3.57,4.43
					C47.3,78.76,46.92,79.02,46.65,79.18C46.65,79.18,46.66,79.17,46.65,79.18z"/>
				<path class="st5" d="M45.66,79.57l-2.81-4.45c0.23-0.15,0.48-0.31,0.68-0.45L46.53,79C46.22,79.21,45.95,79.39,45.66,79.57z"/>
			</g>
			<g>
				<polygon class="st3" points="44.92,80.27 42.02,75.38 42.74,74.94 45.78,79.75 				"/>
				<polygon class="st5" points="43.94,80.59 41.4,75.98 42.13,75.56 44.81,80.09 				"/>
			</g>
			<g>
				<path class="st3" d="M43.15,81.25l-2.59-5.07l0.74-0.39l2.75,4.98C43.75,80.94,43.45,81.1,43.15,81.25z"/>
				<path class="st5" d="M42.14,81.51l-2.23-4.76l0.75-0.37l2.4,4.68C42.76,81.21,42.45,81.36,42.14,81.51z"/>
			</g>
			<g>
				<path class="st3" d="M41.29,82.12l-2.21-5.25c0.25-0.1,0.49-0.21,0.74-0.33l2.41,5.15C41.92,81.85,41.61,81.99,41.29,82.12z"/>
				<path class="st5" d="M40.23,82.31l-1.8-4.94c0.25-0.09,0.49-0.19,0.74-0.29l2.04,4.85C40.89,82.06,40.56,82.19,40.23,82.31z"/>
			</g>
			<g>
				<path class="st3" d="M39.27,82.85l-1.64-5.45c0.24-0.07,0.48-0.15,0.72-0.24l1.95,5.34C39.97,82.63,39.62,82.75,39.27,82.85z"/>
				<path class="st5" d="M38.13,82.93l-1.15-5.14c0.23-0.05,0.47-0.11,0.71-0.19l1.52,5.04C38.86,82.75,38.5,82.85,38.13,82.93z"/>
			</g>
			<g>
				<path class="st3" d="M37.01,83.35l-0.71-5.65c0.2-0.02,0.42-0.06,0.65-0.11l1.24,5.55C37.8,83.23,37.41,83.3,37.01,83.35z"/>
				<path class="st5" d="M35.73,83.22v-5.26c0.18,0,0.38-0.01,0.59-0.04l0.66,5.22C36.58,83.19,36.16,83.22,35.73,83.22z"/>
			</g>
		</g>
		<path class="st3" d="M35.73,83.74v-6.3c0.45,0,1.26-0.1,2.52-0.56l2.16,5.91C38.7,83.42,37.13,83.74,35.73,83.74z"/>
		<path class="st3" d="M35.32,78.43l-6.4,3.02l-2.71-7.19l-0.39-0.84l0.52-0.24c1.13,1.02,2.54,1.75,3.33,1.75
			c0.62,0,1.62-0.45,2.57-1.13l0.39,0.83L35.32,78.43z"/>
		<path class="st5" d="M35.7,70.11v0.42c0,0.49-0.18,1.02-0.53,1.59l-0.01,0.01l-0.14,0.23h-0.01c-0.55,0.8-1.42,1.62-2.37,2.27
			c-1,0.67-2.07,1.15-2.96,1.15c-1.04,0-2.34-0.65-3.46-1.52c-0.75-0.57-1.41-1.25-1.86-1.9h-0.01l-0.14-0.23v-0.01
			c-0.35-0.57-0.54-1.11-0.54-1.59v-0.42h3.78v2.25h-1.89c0.24,0.29,0.5,0.57,0.79,0.83c1.13,1.02,2.54,1.75,3.33,1.75
			c0.62,0,1.62-0.45,2.57-1.13c0.57-0.42,1.11-0.91,1.56-1.44h-1.88v-2.25H35.7z"/>
		<path class="st2" d="M51.47,67.45c0.03-0.37,0.04-0.75,0.04-1.14l-1.41,0.12c-0.04,0.39-0.09,0.76-0.15,1.13l-0.21-0.04
			c-0.06,0.36-0.13,0.72-0.21,1.07l0.21,0.05c-0.08,0.35-0.17,0.7-0.28,1.04l-0.21-0.06c-0.1,0.34-0.21,0.68-0.33,1.01l0.2,0.07
			c-0.12,0.34-0.25,0.67-0.38,1l-0.2-0.08c-0.13,0.33-0.28,0.65-0.43,0.97l0.19,0.09c-0.15,0.33-0.32,0.65-0.5,0.97l-0.19-0.1
			c-0.18,0.32-0.36,0.63-0.56,0.94l0.18,0.11c-0.2,0.32-0.41,0.63-0.65,0.94l-0.17-0.13c-0.23,0.3-0.47,0.6-0.73,0.9l0.16,0.14
			c-0.27,0.3-0.56,0.59-0.88,0.87l-0.14-0.16c-0.31,0.28-0.65,0.54-1.02,0.79l0.12,0.18c-0.3,0.2-0.69,0.43-0.98,0.56
			c0,0,0.01,0,0,0l-0.11-0.19c-0.32,0.18-0.61,0.33-0.91,0.49l0.1,0.19l-0.9,0.44l-0.09-0.19l-0.91,0.42l0.09,0.2
			c-0.31,0.13-0.62,0.27-0.93,0.39l-0.08-0.2c-0.31,0.13-0.63,0.25-0.95,0.36l0.07,0.2c-0.32,0.12-0.65,0.23-0.98,0.33l-0.07-0.2
			c-0.33,0.1-0.66,0.2-1,0.29l0.13,0.5c-0.63,0.17-1.24,0.28-1.83,0.38v1.11v0.52c1.4,0,2.97-0.32,4.68-0.94l-0.18-0.49
			c0.33-0.12,0.65-0.25,0.97-0.38l0.08,0.2c0.32-0.14,0.64-0.28,0.95-0.42l-0.09-0.2c0.31-0.14,0.61-0.29,0.91-0.45l0.1,0.19
			c0.3-0.15,0.6-0.31,0.89-0.48l-0.1-0.19l0.87-0.5l0.11,0.19l0.86-0.53l-0.12-0.18c0.29-0.18,0.56-0.36,0.86-0.57l0.12,0.18
			c0.01-0.01,0,0,0,0c0.27-0.16,0.65-0.42,0.92-0.65l-0.13-0.17c0.35-0.28,0.66-0.57,0.94-0.88l0.16,0.15
			c0.29-0.31,0.55-0.63,0.79-0.95l-0.17-0.13c0.23-0.32,0.45-0.64,0.65-0.96l0.18,0.11c0.2-0.33,0.39-0.66,0.56-0.99l-0.19-0.1
			c0.17-0.33,0.32-0.66,0.47-0.99l0.2,0.09c0.14-0.34,0.28-0.67,0.41-1.01l-0.2-0.07c0.12-0.33,0.24-0.67,0.34-1.01l0.21,0.06
			c0.11-0.34,0.2-0.69,0.29-1.03l-0.21-0.05c0.08-0.34,0.16-0.69,0.23-1.04l0.21,0.04c0.07-0.35,0.13-0.71,0.18-1.07l-0.21-0.03
			c0.05-0.36,0.09-0.71,0.12-1.08L51.47,67.45z"/>
		<path class="st7" d="M38.3,84.04l-7.59,3.43c-0.29,0.13-0.67-0.04-0.85-0.38l-2.9-5.3c-0.19-0.34-0.11-0.72,0.18-0.85l8.62-3.9
			c0.29-0.13,0.62,0.06,0.75,0.42l2.06,5.68C38.71,83.51,38.59,83.91,38.3,84.04z"/>
		<path class="st2" d="M29.43,83.22c-0.29-0.48-0.29-0.98-0.01-1.13l7.3-3.85l-0.19-0.52c-0.12-0.34-0.45-0.52-0.71-0.4l-8.18,3.7
			c-0.27,0.12-0.35,0.48-0.17,0.8l2.75,5.02c0.18,0.32,0.54,0.48,0.81,0.36l0.62-0.28L29.43,83.22z"/>
		<path class="st5" d="M38.66,85.92l-6.78,3.06c-0.28,0.13-0.64-0.05-0.8-0.41l-0.48-1.06l7.81-3.53l0.48,1.06
			C39.05,85.4,38.95,85.79,38.66,85.92z"/>
		<path class="st2" d="M51.57,36.28v30.03h-2.15V36.26c0-4.25-1.72-10.37-3.92-13.93c-3.16-5.11-7-11.23-10.02-15.7l0.38-2.6
			c2.52,3.2,8.02,12.24,12.18,19.27C50.02,26.62,51.57,32.32,51.57,36.28z"/>
	</g>
</g>
</svg>
