<?xml version="1.0" encoding="utf-8"?>
<!-- Generator: Adobe Illustrator 25.1.0, SVG Export Plug-In . SVG Version: 6.00 Build 0)  -->
<svg version="1.1" id="Layer_1" xmlns="http://www.w3.org/2000/svg" xmlns:xlink="http://www.w3.org/1999/xlink" x="0px" y="0px"
	 viewBox="0 0 57.14 93.71" style="enable-background:new 0 0 57.14 93.71;" xml:space="preserve">
<style type="text/css">
	.st0{fill:#60606A;}
	.st1{fill:#7A9AC2;}
	.st2{fill:#474044;}
	.st3{opacity:0.2;fill:#010101;}
	.st4{fill:#51525A;}
	.st5{opacity:0.3;fill:#FFFFFF;}
</style>
<g>
	<g>
		<rect x="48.39" y="20.87" class="st0" width="1.35" height="0.68"/>
		<path class="st1" d="M51.03,38.73c-0.25-0.75-0.47-1.5-0.67-2.23c-1.4-5.08-1.83-9.54-2.16-12.04c-0.06,0.05-0.13,0.1-0.19,0.15
			c-1.59,1.15-3.43,1.69-5.19,1.69c-1.76,0-3.6-0.53-5.19-1.69c-0.06-0.05-0.13-0.1-0.19-0.15c-0.33,2.49-0.77,6.96-2.16,12.04
			c-0.21,0.73-0.42,1.48-0.67,2.23c-5.08,15.65-4,40.72-3.54,42.55c0.91,1.03,2.86,2.14,5.67,2.61c1.78,0.3,4.14-0.97,6.09-0.97
			c1.94,0,4.31,1.27,6.09,0.97c2.81-0.47,4.76-1.58,5.67-2.61C55.03,79.45,56.11,54.38,51.03,38.73z"/>
		<path class="st0" d="M51.8,14.17c-0.22,0.42-0.34,0.83-0.47,1.24c-0.12,0.42-0.23,0.83-0.33,1.25c-0.2,0.81-0.38,1.63-0.55,2.45
			l-1.13-0.07l-1.16,9.65c0,0,1.27-0.21,1.79-1.12c0.66-1.15,1.27-7.26,1.37-8.27l0.01,0c0.08-0.84,0.17-1.69,0.29-2.53
			c0.06-0.42,0.12-0.84,0.19-1.26c0.08-0.41,0.16-0.84,0.3-1.19L51.8,14.17z"/>
		<path class="st2" d="M50.36,36.5c-0.34,0.66-0.7,1.47-1.01,2.43c-0.92,2.8-1.72,18.61-3.08,33.22C46.19,64.82,45.9,32.72,48,24.61
			c0.06-0.05,0.13-0.1,0.19-0.15C48.52,26.96,48.96,31.42,50.36,36.5z"/>
		<path class="st3" d="M48.39,26.02c-0.07-0.58-0.14-1.1-0.2-1.56c-0.06,0.05-0.13,0.1-0.19,0.15c-2.1,8.12-1.81,40.21-1.73,47.55
			c0.22-2.42,0.43-4.87,0.63-7.28C46.86,53.36,47,33.75,48.39,26.02z"/>
		<path class="st4" d="M47.91,23.95c-0.5,1.11-3.97,2.34-5.09,2.34c-1.13,0-4.59-1.23-5.09-2.34c-0.38,1.2-0.75,4.16-0.86,4.87
			c0.92,0.87,4.91,1.73,5.96,1.73c1.04,0,5.04-0.86,5.96-1.73C48.66,28.11,48.28,25.15,47.91,23.95z"/>
		<rect x="35.88" y="20.87" class="st0" width="1.35" height="0.68"/>
		<path class="st0" d="M36.31,19.05l-1.14,0.07c-0.17-0.82-0.35-1.64-0.55-2.45c-0.1-0.42-0.21-0.83-0.34-1.25
			c-0.13-0.42-0.24-0.83-0.47-1.24l-0.3,0.16c0.14,0.36,0.22,0.79,0.3,1.19c0.08,0.42,0.14,0.84,0.2,1.26
			c0.11,0.84,0.21,1.69,0.28,2.53l0.01,0c0.1,1,0.71,7.11,1.37,8.27c0.52,0.91,1.79,1.12,1.79,1.12L36.31,19.05z"/>
		<path class="st2" d="M35.26,36.5c0.34,0.66,0.7,1.47,1.01,2.43c0.92,2.8,1.73,18.61,3.08,33.22c0.08-7.34,0.37-39.43-1.73-47.55
			c-0.06-0.05-0.13-0.1-0.19-0.15C37.1,26.96,36.66,31.42,35.26,36.5z"/>
		<path class="st3" d="M37.23,26.02c0.07-0.58,0.14-1.1,0.2-1.56c0.06,0.05,0.13,0.1,0.19,0.15c2.1,8.12,1.81,40.21,1.73,47.55
			c-0.23-2.42-0.43-4.87-0.63-7.28C38.76,53.36,38.62,33.75,37.23,26.02z"/>
		<path class="st5" d="M38.01,43.33c0.1-0.97,0.19-1.94,0.27-2.88c0.51-6.36,0.45-11.92,0.45-15.15c-0.29-0.2-0.59-0.42-0.86-0.68
			c-0.05-0.05-0.1-0.1-0.15-0.15c-0.25,2.49-0.6,6.96-1.68,12.04c-0.16,0.73-0.33,1.48-0.52,2.23c-3.94,15.65-3.1,40.72-2.74,42.55
			c0.71,1.03,2.22,2.14,4.39,2.61c0.26,0.06,0.54,0.05,0.82,0.01C37.27,72.29,36.71,55.67,38.01,43.33z"/>
		<path class="st0" d="M49.02,13.39c-0.18-0.53-0.47-0.94-0.79-1.35c-0.64-0.8-1.43-1.49-2.33-2.04c-0.91-0.54-2.26-1.06-3.08-1.06
			c-0.81,0-2.16,0.52-3.08,1.06c-0.91,0.55-1.69,1.24-2.33,2.04c-0.32,0.41-0.62,0.82-0.79,1.35c-0.13,0.55-0.05,1.03-0.05,1.53
			c0.04,1,0.27,3.13,0.25,4.13l0.66-1.56c-0.23-0.96-0.61-1.6-0.64-2.58c-0.01-0.48-0.02-1.01,0.11-1.42
			c0.18-0.4,0.51-0.78,0.84-1.12c0.68-0.67,1.5-1.19,2.38-1.51c0.87-0.33,1.99-0.57,2.66-0.57c0.67,0,1.79,0.24,2.66,0.57
			c0.88,0.31,1.7,0.83,2.38,1.51c0.33,0.33,0.66,0.72,0.83,1.12c0.13,0.41,0.12,0.94,0.11,1.42c-0.03,0.98-0.4,1.62-0.64,2.58
			l0.66,1.56c-0.01-1.01,0.21-3.13,0.25-4.13C49.07,14.42,49.14,13.93,49.02,13.39z"/>
		<path class="st0" d="M47.67,14.74c-1.16-1.37-3.68-1.63-4.87-1.63c-1.19,0-3.71,0.26-4.87,1.63c-1.39,1.65-1.56,8.13-0.51,9.72
			c1.05,1.58,3.74,2.51,5.38,2.51c1.64,0,4.33-0.93,5.38-2.51C49.24,22.88,49.06,16.39,47.67,14.74z"/>
		<path class="st2" d="M47.59,16.16c-0.47-2.1-3.34-2.35-4.78-2.35c-1.44,0-4.31,0.26-4.78,2.35c-0.45,2.02-0.4,5.48,0.09,7.54
			c0.49,2.06,3.65,2.54,4.69,2.6c1.04-0.06,4.2-0.54,4.69-2.6C48,21.64,48.05,18.17,47.59,16.16z"/>
	</g>
	<g>
		<rect x="19.34" y="20.87" class="st0" width="1.35" height="0.68"/>
		<path class="st1" d="M21.98,38.73c-0.25-0.75-0.47-1.5-0.67-2.23c-1.4-5.08-1.83-9.54-2.16-12.04c-0.06,0.05-0.13,0.1-0.19,0.15
			c-1.59,1.15-3.43,1.69-5.19,1.69c-1.76,0-3.6-0.53-5.19-1.69c-0.06-0.05-0.13-0.1-0.19-0.15c-0.33,2.49-0.77,6.96-2.16,12.04
			c-0.21,0.73-0.42,1.48-0.67,2.23C0.46,54.38,1.54,79.45,2,81.28c0.91,1.03,2.86,2.14,5.67,2.61c1.78,0.3,4.14-0.97,6.09-0.97
			c1.94,0,4.31,1.27,6.09,0.97c2.81-0.47,4.76-1.58,5.67-2.61C25.98,79.45,27.06,54.38,21.98,38.73z"/>
		<path class="st0" d="M22.75,14.17c-0.23,0.42-0.34,0.83-0.47,1.24c-0.12,0.42-0.23,0.83-0.33,1.25c-0.2,0.81-0.38,1.63-0.55,2.45
			l-1.13-0.07l-1.16,9.65c0,0,1.27-0.21,1.79-1.12c0.66-1.15,1.27-7.26,1.37-8.27l0.01,0c0.08-0.84,0.17-1.69,0.29-2.53
			c0.05-0.42,0.12-0.84,0.19-1.26c0.08-0.41,0.16-0.84,0.3-1.19L22.75,14.17z"/>
		<path class="st2" d="M21.31,36.5c-0.34,0.66-0.7,1.47-1.01,2.43c-0.92,2.8-1.72,18.61-3.08,33.22
			c-0.08-7.34-0.37-39.43,1.73-47.55c0.06-0.05,0.13-0.1,0.19-0.15C19.47,26.96,19.91,31.42,21.31,36.5z"/>
		<path class="st3" d="M19.34,26.02c-0.07-0.58-0.14-1.1-0.2-1.56c-0.06,0.05-0.13,0.1-0.19,0.15c-2.1,8.12-1.81,40.21-1.73,47.55
			c0.22-2.42,0.43-4.87,0.63-7.28C17.81,53.36,17.95,33.75,19.34,26.02z"/>
		<path class="st4" d="M18.86,23.95c-0.5,1.11-3.97,2.34-5.09,2.34c-1.13,0-4.59-1.23-5.09-2.34c-0.38,1.2-0.75,4.16-0.86,4.87
			c0.92,0.87,4.91,1.73,5.96,1.73c1.04,0,5.04-0.86,5.95-1.73C19.61,28.11,19.23,25.15,18.86,23.95z"/>
		<rect x="6.83" y="20.87" class="st0" width="1.35" height="0.68"/>
		<path class="st0" d="M7.26,19.05l-1.14,0.07c-0.17-0.82-0.35-1.64-0.55-2.45c-0.1-0.42-0.21-0.83-0.34-1.25
			C5.11,15,5,14.59,4.77,14.17l-0.3,0.16c0.14,0.36,0.22,0.79,0.3,1.19c0.08,0.42,0.14,0.84,0.2,1.26c0.11,0.84,0.21,1.69,0.28,2.53
			l0.01,0c0.1,1,0.71,7.11,1.37,8.27c0.52,0.91,1.79,1.12,1.79,1.12L7.26,19.05z"/>
		<path class="st2" d="M6.21,36.5c0.34,0.66,0.7,1.47,1.01,2.43c0.92,2.8,1.73,18.61,3.08,33.22c0.08-7.34,0.37-39.43-1.73-47.55
			c-0.06-0.05-0.13-0.1-0.19-0.15C8.05,26.96,7.61,31.42,6.21,36.5z"/>
		<path class="st3" d="M8.18,26.02c0.07-0.58,0.14-1.1,0.2-1.56c0.06,0.05,0.13,0.1,0.19,0.15c2.1,8.12,1.81,40.21,1.73,47.55
			c-0.23-2.42-0.43-4.87-0.63-7.28C9.71,53.36,9.57,33.75,8.18,26.02z"/>
		<path class="st5" d="M8.96,43.33c0.1-0.97,0.19-1.94,0.27-2.88c0.51-6.36,0.45-11.92,0.45-15.15c-0.29-0.2-0.58-0.42-0.86-0.68
			c-0.05-0.05-0.1-0.1-0.15-0.15c-0.25,2.49-0.59,6.96-1.68,12.04c-0.16,0.73-0.33,1.48-0.52,2.23c-3.94,15.65-3.1,40.72-2.74,42.55
			c0.7,1.03,2.22,2.14,4.39,2.61c0.26,0.06,0.54,0.05,0.82,0.01C8.22,72.29,7.66,55.67,8.96,43.33z"/>
		<path class="st0" d="M19.97,13.39c-0.18-0.53-0.48-0.94-0.79-1.35c-0.64-0.8-1.43-1.49-2.33-2.04c-0.91-0.54-2.26-1.06-3.08-1.06
			c-0.81,0-2.16,0.52-3.08,1.06c-0.91,0.55-1.69,1.24-2.33,2.04c-0.32,0.41-0.62,0.82-0.79,1.35c-0.13,0.55-0.05,1.03-0.05,1.53
			c0.04,1,0.27,3.13,0.25,4.13l0.66-1.56c-0.23-0.96-0.61-1.6-0.64-2.58c-0.01-0.48-0.01-1.01,0.11-1.42
			c0.18-0.4,0.51-0.78,0.83-1.12c0.68-0.67,1.5-1.19,2.38-1.51c0.87-0.33,1.99-0.57,2.66-0.57c0.67,0,1.79,0.24,2.66,0.57
			c0.88,0.31,1.7,0.83,2.38,1.51c0.33,0.33,0.66,0.72,0.83,1.12c0.13,0.41,0.12,0.94,0.11,1.42c-0.03,0.98-0.41,1.62-0.64,2.58
			l0.66,1.56c-0.01-1.01,0.21-3.13,0.25-4.13C20.02,14.42,20.09,13.93,19.97,13.39z"/>
		<path class="st0" d="M18.63,14.74c-1.16-1.37-3.68-1.63-4.87-1.63c-1.18,0-3.71,0.26-4.87,1.63c-1.39,1.65-1.56,8.13-0.51,9.72
			c1.05,1.58,3.74,2.51,5.38,2.51c1.64,0,4.33-0.93,5.38-2.51C20.19,22.88,20.01,16.39,18.63,14.74z"/>
		<path class="st2" d="M18.54,16.16c-0.47-2.1-3.34-2.35-4.78-2.35c-1.44,0-4.31,0.26-4.78,2.35c-0.45,2.02-0.4,5.48,0.09,7.54
			c0.49,2.06,3.65,2.54,4.7,2.6c1.04-0.06,4.2-0.54,4.69-2.6C18.95,21.64,19,18.17,18.54,16.16z"/>
	</g>
</g>
</svg>
