<?xml version="1.0" encoding="utf-8"?>
<!-- Generator: Adobe Illustrator 25.1.0, SVG Export Plug-In . SVG Version: 6.00 Build 0)  -->
<svg version="1.1" id="Layer_1" xmlns="http://www.w3.org/2000/svg" xmlns:xlink="http://www.w3.org/1999/xlink" x="0px" y="0px"
	 viewBox="0 0 57.14 93.71" style="enable-background:new 0 0 57.14 93.71;" xml:space="preserve">
<style type="text/css">
	.st0{opacity:0.5;fill:#88B0DD;}
	.st1{fill:#FBAD22;}
	.st2{fill:#F5F3F4;}
	.st3{fill:#BCBDBE;}
	.st4{fill:#FFFFFF;}
	.st5{fill:#A1A1A3;}
	.st6{opacity:0.3;fill:#FFFFFF;}
	.st7{fill:#60606A;}
	.st8{fill:#BEBFC2;}
	.st9{fill:#E9E6E7;}
	.st10{fill:#474044;}
	.st11{opacity:0.3;fill:#010101;}
	.st12{fill:#51525A;}
	.st13{fill:#DE5340;}
	.st14{fill:#CF2027;}
	.st15{fill:#88B0DD;}
</style>
<g>
	<path class="st0" d="M17.2,60.92c-2.2,0-3.83-1.07-4.03-2.59c-2.66-0.44-4.7-2.76-4.7-5.54v-23.5c0-3.09,2.52-5.61,5.61-5.61h35.12
		c3.1,0,5.61,2.52,5.61,5.61v23.5c0,2.78-2.04,5.1-4.7,5.54c-0.2,1.52-1.84,2.59-4.03,2.59H17.2z"/>
	<g>
		<path class="st1" d="M49.21,56.15H14.09c-1.86,0-3.36-1.5-3.36-3.36v-23.5c0-1.85,1.5-3.36,3.36-3.36h35.12
			c1.86,0,3.36,1.5,3.36,3.36v23.5C52.57,54.65,51.06,56.15,49.21,56.15z"/>
		<path class="st2" d="M49.21,56.75H14.09c-2.18,0-3.96-1.77-3.96-3.96v-23.5c0-2.18,1.77-3.96,3.96-3.96h35.12
			c2.18,0,3.96,1.77,3.96,3.96v23.5C53.17,54.97,51.39,56.75,49.21,56.75z M14.09,26.54c-1.52,0-2.76,1.24-2.76,2.76v23.5
			c0,1.52,1.24,2.76,2.76,2.76h35.12c1.52,0,2.76-1.24,2.76-2.76v-23.5c0-1.52-1.24-2.76-2.76-2.76H14.09z"/>
	</g>
	<path class="st3" d="M46.09,59.26H17.2c-1.33,0-2.4-0.56-2.4-1.26v-1.26h33.69c0,0,0,0.56,0,1.26
		C48.49,58.7,47.42,59.26,46.09,59.26z"/>
	<g>
		<g>
			<path class="st3" d="M24.61,49.68c0,2.24-1.82,4.06-4.06,4.06c-2.24,0-4.06-1.82-4.06-4.06c0-2.24,1.82-4.06,4.06-4.06
				C22.79,45.62,24.61,47.44,24.61,49.68z"/>
			<path class="st4" d="M20.55,53.95c-2.35,0-4.27-1.91-4.27-4.27c0-2.35,1.91-4.27,4.27-4.27c2.35,0,4.27,1.91,4.27,4.27
				C24.82,52.03,22.9,53.95,20.55,53.95z M20.55,45.83c-2.12,0-3.85,1.73-3.85,3.85c0,2.12,1.72,3.85,3.85,3.85
				c2.12,0,3.85-1.73,3.85-3.85C24.4,47.56,22.67,45.83,20.55,45.83z"/>
		</g>
		<path class="st5" d="M23.91,49.68c0,1.86-1.51,3.36-3.36,3.36c-1.86,0-3.36-1.51-3.36-3.36c0-1.86,1.51-3.36,3.36-3.36
			C22.41,46.32,23.91,47.82,23.91,49.68z"/>
		<path class="st6" d="M22.31,47.27c-0.46-0.28-1-0.45-1.58-0.45c-1.67,0-3.02,1.35-3.02,3.02c0,0.51,0.13,1,0.36,1.42
			C18.24,49.06,20.07,47.32,22.31,47.27z"/>
	</g>
	<g>
		<path class="st7" d="M23.5,72.57c0,0,0-0.78,0-1.74c0-0.96,0.96-1.74,2.14-1.74H38.5c1.18,0,2.14,0.78,2.14,1.74v1.74H23.5z"/>
		<rect x="37.82" y="61.54" class="st3" width="1.08" height="5.27"/>
		<path class="st8" d="M40.34,65.86H38.9V62.5c0,0,0.64,0,1.44,0c0.8,0,1.44,0.75,1.44,1.68C41.78,65.11,41.13,65.86,40.34,65.86z"
			/>
		<path class="st9" d="M40.37,62.86c-0.14,0-0.27,0-0.39,0c0.65,0,1.18,0.7,1.18,1.57c0,0.41-0.12,0.78-0.32,1.06
			c0.42-0.21,0.71-0.7,0.71-1.26C41.55,63.48,41.02,62.86,40.37,62.86z"/>
		<rect x="23.5" y="71.31" class="st10" width="17.14" height="1.26"/>
		<g>
			<rect x="26.31" y="59.26" class="st7" width="11.51" height="9.83"/>
			<g>
				<g>
					<rect x="28.44" y="59.26" class="st8" width="2.52" height="9.83"/>
					<rect x="33.18" y="59.26" class="st8" width="2.52" height="9.83"/>
				</g>
				<g>
					<rect x="28.44" y="60.75" class="st9" width="2.52" height="2.95"/>
					<rect x="28.44" y="64.96" class="st9" width="2.52" height="1.2"/>
				</g>
				<g>
					<rect x="33.18" y="60.75" class="st9" width="2.52" height="2.95"/>
					<rect x="33.18" y="64.96" class="st9" width="2.52" height="1.2"/>
				</g>
			</g>
			<rect x="26.31" y="68.61" class="st11" width="11.51" height="0.48"/>
		</g>
		<rect x="38.9" y="62.5" class="st11" width="0.42" height="3.36"/>
		<g>
			<path class="st12" d="M26.37,62.21v3.95c-0.02,0-0.04-0.01-0.06-0.01c-0.36-0.03-0.72-0.05-1.08-0.07
				c-5.03-0.31-10.16-0.04-15.2,1.14c-0.52,0.12-1.05,0.25-1.57,0.4v-6.88c0.52,0.14,1.05,0.27,1.57,0.4
				c5.04,1.18,10.17,1.45,15.2,1.14c0.36-0.02,0.72-0.04,1.08-0.07C26.33,62.21,26.35,62.21,26.37,62.21z"/>
			<path class="st11" d="M10.57,63.38v1.6c0,0.82-0.19,1.58-0.54,2.24c-0.52,0.12-1.05,0.25-1.57,0.4v-6.88
				c0.52,0.14,1.05,0.27,1.57,0.4C10.38,61.8,10.57,62.56,10.57,63.38z"/>
			<path class="st5" d="M5.92,69.55H1.75V58.81c0,0,1.87,0,4.17,0c2.3,0,4.17,2.05,4.17,4.57v1.6C10.09,67.5,8.22,69.55,5.92,69.55z
				"/>
			<path class="st10" d="M5.92,58.81c-2.3,0-4.17,0-4.17,0v0.23c0.58,0,1.24,0,1.95,0c2.21,0,3.99,1.96,3.99,4.38v1.53
				c0,2.42-1.79,4.38-3.99,4.38H1.75v0.22h4.17c2.3,0,4.17-2.05,4.17-4.57v-1.6C10.09,60.86,8.22,58.81,5.92,58.81z"/>
			<path class="st11" d="M26.31,62.21v3.94c-0.36-0.03-0.72-0.05-1.08-0.07v-3.8C25.59,62.26,25.95,62.24,26.31,62.21z"/>
		</g>
	</g>
	<g>
		<path class="st10" d="M16.24,20.57h8.99v4.77H13.85c0,0,0-1.07,0-2.38C13.85,21.64,14.92,20.57,16.24,20.57z"/>
		<g>
			<path class="st10" d="M49.13,22.53h-23.9v2.81h23.98v-2.38C49.21,22.81,49.18,22.67,49.13,22.53z"/>
			<path class="st7" d="M44.42,20.57H25.23v1.96h23.9C48.73,21.42,46.77,20.57,44.42,20.57z"/>
		</g>
	</g>
	<rect x="26.31" y="59.26" class="st11" width="11.51" height="0.84"/>
	<rect x="14.81" y="56.75" class="st11" width="33.69" height="0.63"/>
	<g>
		<path class="st3" d="M20.56,21.6h-2.4c-1.85,0-3.36,0.38-3.36,0.84h9.11C23.92,21.98,22.41,21.6,20.56,21.6z"/>
		<rect x="14.81" y="22.45" class="st5" width="9.11" height="2.89"/>
		<g>
			<rect x="15.22" y="22.81" class="st12" width="0.48" height="2.16"/>
			<rect x="16.52" y="22.81" class="st12" width="0.48" height="2.16"/>
			<rect x="17.82" y="22.81" class="st12" width="0.48" height="2.16"/>
			<rect x="19.12" y="22.81" class="st12" width="0.48" height="2.16"/>
			<rect x="20.42" y="22.81" class="st12" width="0.48" height="2.16"/>
			<rect x="21.72" y="22.81" class="st12" width="0.48" height="2.16"/>
			<rect x="23.02" y="22.81" class="st12" width="0.48" height="2.16"/>
		</g>
		<rect x="14.81" y="24.56" class="st11" width="9.11" height="0.78"/>
	</g>
	<g>
		<path class="st13" d="M28.2,52.63c0,0.72-0.59,1.31-1.31,1.31c-0.72,0-1.31-0.59-1.31-1.31c0-0.72,0.59-1.31,1.31-1.31
			C27.61,51.32,28.2,51.91,28.2,52.63z"/>
		<path class="st14" d="M27.6,51.54c0.2,0.23,0.33,0.53,0.33,0.86c0,0.72-0.59,1.31-1.31,1.31c-0.26,0-0.51-0.08-0.71-0.21
			c0.24,0.27,0.59,0.45,0.98,0.45c0.72,0,1.31-0.59,1.31-1.31C28.2,52.17,27.96,51.77,27.6,51.54z"/>
	</g>
	<g>
		<path class="st8" d="M31.56,52.63c0,0.72-0.59,1.31-1.31,1.31c-0.72,0-1.31-0.59-1.31-1.31c0-0.72,0.59-1.31,1.31-1.31
			C30.98,51.32,31.56,51.91,31.56,52.63z"/>
		<path class="st7" d="M30.97,51.54c0.2,0.23,0.33,0.53,0.33,0.86c0,0.72-0.59,1.31-1.31,1.31c-0.26,0-0.51-0.08-0.72-0.21
			c0.24,0.27,0.59,0.45,0.98,0.45c0.73,0,1.31-0.59,1.31-1.31C31.56,52.17,31.32,51.77,30.97,51.54z"/>
	</g>
	<path class="st5" d="M24.2,43.08H16.9c-0.79,0-1.44-0.64-1.44-1.44v-9.03c0-0.8,0.64-1.44,1.44-1.44h7.29
		c0.79,0,1.44,0.64,1.44,1.44v9.03C25.64,42.44,24.99,43.08,24.2,43.08z"/>
	<path class="st11" d="M15.94,42.12v-9.03c0-0.79,0.64-1.44,1.44-1.44h7.29c0.27,0,0.53,0.08,0.75,0.21
		c-0.25-0.41-0.7-0.69-1.23-0.69H16.9c-0.79,0-1.44,0.64-1.44,1.44v9.03c0,0.52,0.28,0.97,0.69,1.23
		C16.02,42.65,15.94,42.4,15.94,42.12z"/>
	<g>
		<path class="st10" d="M51.37,40.06c0,6.75-5.47,12.22-12.22,12.22c-6.75,0-12.22-5.47-12.22-12.22c0-6.75,5.47-12.22,12.22-12.22
			C45.89,27.84,51.37,33.31,51.37,40.06z"/>
		<path class="st12" d="M48.31,40.06c0,5.06-4.1,9.16-9.16,9.16c-5.06,0-9.16-4.1-9.16-9.16c0-5.06,4.1-9.16,9.16-9.16
			C44.21,30.9,48.31,35,48.31,40.06z"/>
		<path class="st9" d="M39.15,49.49c-5.2,0-9.44-4.23-9.44-9.44c0-5.2,4.23-9.44,9.44-9.44c5.2,0,9.44,4.23,9.44,9.44
			C48.59,45.26,44.35,49.49,39.15,49.49z M39.15,31.17c-4.9,0-8.88,3.99-8.88,8.88c0,4.9,3.98,8.88,8.88,8.88
			c4.9,0,8.88-3.99,8.88-8.88C48.03,35.16,44.05,31.17,39.15,31.17z"/>
		<path class="st15" d="M46.74,40.06c0,4.19-3.4,7.59-7.59,7.59c-4.19,0-7.59-3.4-7.59-7.59c0-4.19,3.4-7.59,7.59-7.59
			C43.34,32.47,46.74,35.86,46.74,40.06z"/>
		<path class="st9" d="M39.15,43.15c-1.71,0-3.09-1.39-3.09-3.09c0-1.71,1.39-3.09,3.09-3.09c1.71,0,3.09,1.39,3.09,3.09
			C42.24,41.76,40.85,43.15,39.15,43.15z M39.15,37.52c-1.4,0-2.54,1.14-2.54,2.54c0,1.4,1.14,2.54,2.54,2.54
			c1.4,0,2.54-1.14,2.54-2.54C41.69,38.66,40.55,37.52,39.15,37.52z"/>
		<path class="st9" d="M40.39,40.06c0,0.69-0.56,1.24-1.24,1.24c-0.69,0-1.24-0.56-1.24-1.24c0-0.69,0.56-1.24,1.24-1.24
			C39.83,38.81,40.39,39.37,40.39,40.06z"/>
		<path class="st6" d="M33.15,37.89c-0.18,0.51-0.31,1.05-0.36,1.61h2.23c0.03-0.23,0.08-0.46,0.14-0.68L33.15,37.89z"/>
		<path class="st6" d="M35.64,37.82c0.64-1.01,1.71-1.72,2.95-1.88V33.7c-2.13,0.18-3.96,1.42-4.98,3.18L35.64,37.82z"/>
		<g>
			<path class="st9" d="M39.96,29.07c0,0.39-0.28,0.72-0.65,0.8c-0.05,0.01-0.11,0.02-0.16,0.02c-0.06,0-0.11-0.01-0.16-0.02
				c-0.37-0.07-0.64-0.41-0.64-0.8c0-0.38,0.28-0.72,0.64-0.79c0.05-0.01,0.11-0.02,0.16-0.02c0.06,0,0.11,0.01,0.16,0.02
				C39.69,28.36,39.96,28.69,39.96,29.07z"/>
			<path class="st3" d="M39.31,28.28v1.59c-0.05,0.01-0.11,0.02-0.16,0.02c-0.06,0-0.11-0.01-0.16-0.02v-1.59
				c0.05-0.01,0.11-0.02,0.16-0.02C39.2,28.27,39.26,28.27,39.31,28.28z"/>
		</g>
		<g>
			<path class="st9" d="M30.04,33.86c0.34,0.2,0.49,0.6,0.36,0.96c-0.02,0.05-0.04,0.1-0.07,0.15c-0.03,0.05-0.06,0.09-0.1,0.13
				c-0.25,0.28-0.67,0.35-1.01,0.16c-0.33-0.19-0.48-0.6-0.36-0.95c0.02-0.05,0.04-0.1,0.07-0.15c0.03-0.05,0.06-0.09,0.1-0.13
				C29.28,33.74,29.71,33.67,30.04,33.86z"/>
			<path class="st3" d="M29.03,34.03l1.37,0.79c-0.02,0.05-0.04,0.1-0.07,0.15c-0.03,0.05-0.06,0.09-0.1,0.13l-1.37-0.79
				c0.02-0.05,0.04-0.1,0.07-0.15C28.96,34.11,29,34.07,29.03,34.03z"/>
		</g>
		<g>
			<path class="st9" d="M29.23,44.84c0.34-0.19,0.77-0.12,1.02,0.17c0.03,0.04,0.07,0.08,0.1,0.13c0.03,0.05,0.05,0.1,0.07,0.15
				c0.12,0.35-0.03,0.76-0.37,0.96c-0.33,0.19-0.76,0.12-1.01-0.16c-0.03-0.04-0.07-0.08-0.1-0.13c-0.03-0.05-0.05-0.1-0.07-0.15
				C28.74,45.44,28.9,45.04,29.23,44.84z"/>
			<path class="st3" d="M28.87,45.8l1.37-0.79c0.03,0.04,0.07,0.08,0.1,0.13c0.03,0.05,0.05,0.1,0.07,0.15l-1.38,0.79
				c-0.03-0.04-0.07-0.08-0.1-0.13C28.91,45.9,28.88,45.85,28.87,45.8z"/>
		</g>
		<g>
			<path class="st9" d="M38.33,51.04c0-0.39,0.28-0.73,0.65-0.8c0.05-0.01,0.11-0.02,0.16-0.02c0.06,0,0.11,0.01,0.16,0.02
				c0.37,0.07,0.64,0.41,0.64,0.8c0,0.38-0.28,0.72-0.64,0.79c-0.05,0.01-0.11,0.02-0.16,0.02c-0.06,0-0.11-0.01-0.16-0.02
				C38.61,51.76,38.33,51.42,38.33,51.04z"/>
			<path class="st3" d="M38.98,51.83v-1.59c0.05-0.01,0.11-0.02,0.16-0.02c0.06,0,0.11,0.01,0.16,0.02v1.59
				c-0.05,0.01-0.11,0.02-0.16,0.02C39.09,51.85,39.03,51.84,38.98,51.83z"/>
		</g>
		<g>
			<path class="st9" d="M48.25,46.26c-0.34-0.2-0.49-0.6-0.36-0.96c0.02-0.05,0.04-0.1,0.07-0.15c0.03-0.05,0.06-0.09,0.1-0.13
				c0.25-0.28,0.67-0.35,1.01-0.16c0.33,0.19,0.48,0.6,0.36,0.95c-0.02,0.05-0.04,0.1-0.07,0.15c-0.03,0.05-0.06,0.1-0.09,0.13
				C49.01,46.37,48.58,46.45,48.25,46.26z"/>
			<path class="st3" d="M49.26,46.09l-1.38-0.79c0.02-0.05,0.04-0.1,0.07-0.15c0.03-0.05,0.06-0.09,0.1-0.13l1.38,0.79
				c-0.02,0.05-0.04,0.1-0.07,0.15C49.33,46,49.3,46.05,49.26,46.09z"/>
		</g>
		<g>
			<path class="st9" d="M49.07,35.27c-0.34,0.19-0.77,0.12-1.02-0.17c-0.03-0.04-0.07-0.08-0.1-0.13c-0.03-0.05-0.05-0.1-0.07-0.15
				c-0.12-0.35,0.03-0.76,0.37-0.96c0.33-0.19,0.76-0.12,1.01,0.16c0.03,0.04,0.07,0.08,0.09,0.13c0.03,0.05,0.05,0.1,0.07,0.15
				C49.55,34.67,49.4,35.08,49.07,35.27z"/>
			<path class="st3" d="M49.43,34.31l-1.37,0.79c-0.03-0.04-0.07-0.08-0.1-0.13c-0.03-0.05-0.05-0.1-0.07-0.15l1.37-0.79
				c0.03,0.04,0.07,0.08,0.09,0.13C49.39,34.21,49.41,34.27,49.43,34.31z"/>
		</g>
	</g>
</g>
</svg>
